<!--?xml version="1.0" standalone="no"?-->
              <svg id="sw-js-blob-svg" viewBox="0 0 100 100" xmlns="http://www.w3.org/2000/svg" version="1.1">
                    <defs> 
                        <linearGradient id="sw-gradient" x1="0" x2="1" y1="1" y2="0">
                            <stop id="stop1" stop-color="rgba(90, 41, 12, 1)" offset="0%"></stop>
                            <stop id="stop2" stop-color="rgba(255, 191, 0, 1)" offset="100%"></stop>
                        </linearGradient>
                    </defs>
                <path fill="url(#sw-gradient)" d="M21.2,-30.8C28.2,-28.6,35,-23.8,37.7,-17.4C40.5,-10.9,39.3,-2.7,36.4,4C33.5,10.6,28.8,15.8,23.9,19.7C19,23.6,13.7,26.1,7.8,28.9C1.9,31.6,-4.5,34.5,-12,35C-19.4,35.5,-27.8,33.4,-31.4,28C-34.9,22.5,-33.6,13.6,-34.8,5C-36,-3.5,-39.8,-11.7,-38.8,-19.3C-37.8,-26.8,-32,-33.8,-24.7,-35.9C-17.5,-38,-8.7,-35.2,-0.8,-33.9C7.1,-32.7,14.3,-33,21.2,-30.8Z" width="100%" height="100%" transform="translate(50 50)" stroke-width="0" style="transition: 0.3s;"></path>
              </svg>